<?xml version="1.0" encoding="UTF-8" standalone="no"?>
<!-- Uploaded to: SVG Repo, www.svgrepo.com, Transformed by: SVG Repo Mixer Tools -->

<svg
   fill="#000000"
   width="800px"
   height="800px"
   viewBox="0 0 32 32"
   version="1.1"
   id="svg1"
   sodipodi:docname="add-media.svg"
   inkscape:version="1.3.2 (091e20e, 2023-11-25, custom)"
   xmlns:inkscape="http://www.inkscape.org/namespaces/inkscape"
   xmlns:sodipodi="http://sodipodi.sourceforge.net/DTD/sodipodi-0.dtd"
   xmlns="http://www.w3.org/2000/svg"
   xmlns:svg="http://www.w3.org/2000/svg">
  <defs
     id="defs1" />
  <sodipodi:namedview
     id="namedview1"
     pagecolor="#ffffff"
     bordercolor="#000000"
     borderopacity="0.25"
     inkscape:showpageshadow="2"
     inkscape:pageopacity="0.0"
     inkscape:pagecheckerboard="0"
     inkscape:deskcolor="#d1d1d1"
     inkscape:zoom="0.68625"
     inkscape:cx="400"
     inkscape:cy="400"
     inkscape:window-width="1302"
     inkscape:window-height="745"
     inkscape:window-x="-8"
     inkscape:window-y="-8"
     inkscape:window-maximized="1"
     inkscape:current-layer="SVGRepo_iconCarrier" />
  <g
     id="SVGRepo_bgCarrier"
     stroke-width="0" />
  <g
     id="SVGRepo_tracerCarrier"
     stroke-linecap="round"
     stroke-linejoin="round" />
  <g
     id="SVGRepo_iconCarrier">
    <title
       id="title1">image</title>
    <path
       d="M0 26.016q0 2.496 1.76 4.224t4.256 1.76h20q2.464 0 4.224-1.76t1.76-4.224v-20q0-2.496-1.76-4.256t-4.224-1.76h-20q-2.496 0-4.256 1.76t-1.76 4.256v20zM4 26.016v-20q0-0.832 0.576-1.408t1.44-0.608h20q0.8 0 1.408 0.608t0.576 1.408v20q0 0.832-0.576 1.408t-1.408 0.576h-20q-0.832 0-1.44-0.576t-0.576-1.408zM6.016 24q0 0.832 0.576 1.44t1.408 0.576h16q0.832 0 1.408-0.576t0.608-1.44v-0.928q-0.224-0.448-1.12-2.688t-1.6-3.584-1.28-2.112q-0.544-0.576-1.12-0.608t-1.152 0.384-1.152 1.12-1.184 1.568-1.152 1.696-1.152 1.6-1.088 1.184-1.088 0.448q-0.576 0-1.664-1.44-0.16-0.192-0.48-0.608-1.12-1.504-1.6-1.824-0.768-0.512-1.184 0.352-0.224 0.512-0.928 2.24t-1.056 2.56v0.64zM6.016 9.024q0 1.248 0.864 2.112t2.112 0.864 2.144-0.864 0.864-2.112-0.864-2.144-2.144-0.864-2.112 0.864-0.864 2.144z"
       id="path1"
       style="fill:#696969;fill-opacity:1" />
  </g>
</svg>
