<?xml version="1.0" encoding="UTF-8" standalone="no"?>
<!-- Uploaded to: SVG Repo, www.svgrepo.com, Transformed by: SVG Repo Mixer Tools -->

<svg
   width="800px"
   height="800px"
   viewBox="0 0 32 32"
   version="1.1"
   fill="#000000"
   id="svg1"
   sodipodi:docname="add-note.svg"
   inkscape:version="1.3.2 (091e20e, 2023-11-25, custom)"
   xmlns:inkscape="http://www.inkscape.org/namespaces/inkscape"
   xmlns:sodipodi="http://sodipodi.sourceforge.net/DTD/sodipodi-0.dtd"
   xmlns="http://www.w3.org/2000/svg"
   xmlns:svg="http://www.w3.org/2000/svg"
   xmlns:sketch="http://www.bohemiancoding.com/sketch/ns">
  <defs
     id="defs2" />
  <sodipodi:namedview
     id="namedview1"
     pagecolor="#ffffff"
     bordercolor="#000000"
     borderopacity="0.25"
     inkscape:showpageshadow="2"
     inkscape:pageopacity="0.0"
     inkscape:pagecheckerboard="0"
     inkscape:deskcolor="#d1d1d1"
     inkscape:zoom="0.68625"
     inkscape:cx="399.2714"
     inkscape:cy="400"
     inkscape:window-width="1302"
     inkscape:window-height="745"
     inkscape:window-x="-8"
     inkscape:window-y="-8"
     inkscape:window-maximized="1"
     inkscape:current-layer="Icon-Set-Filled" />
  <g
     id="SVGRepo_bgCarrier"
     stroke-width="0" />
  <g
     id="SVGRepo_tracerCarrier"
     stroke-linecap="round"
     stroke-linejoin="round" />
  <g
     id="SVGRepo_iconCarrier">
    <title
       id="title1">note-text</title>
    <desc
       id="desc1">Created with Sketch Beta.</desc>
    <defs
       id="defs1" />
    <g
       id="Page-1"
       stroke="none"
       stroke-width="1"
       fill="none"
       fill-rule="evenodd"
       sketch:type="MSPage">
      <g
         id="Icon-Set-Filled"
         sketch:type="MSLayerGroup"
         transform="translate(-310.000000, -101.000000)"
         fill="#434343">
        <path
           d="M334,111 L318,111 C317.447,111 317,110.553 317,110 C317,109.448 317.447,109 318,109 L334,109 C334.553,109 335,109.448 335,110 C335,110.553 334.553,111 334,111 L334,111 Z M334,117 L318,117 C317.447,117 317,116.553 317,116 C317,115.448 317.447,115 318,115 L334,115 C334.553,115 335,115.448 335,116 C335,116.553 334.553,117 334,117 L334,117 Z M334,123 L318,123 C317.447,123 317,122.553 317,122 C317,121.448 317.447,121 318,121 L334,121 C334.553,121 335,121.448 335,122 C335,122.553 334.553,123 334,123 L334,123 Z M338,101 L314,101 C311.806,101 310,102.969 310,105.165 L310,129.023 C310,131.22 311.779,133 313.974,133 L337.817,133 C340.012,133 342,131.196 342,129 L342,105 C342,102.804 340.194,101 338,101 L338,101 Z"
           id="note-text"
           sketch:type="MSShapeGroup"
           style="opacity:0.66024096" />
      </g>
    </g>
  </g>
</svg>
